<svg width="20" height="20" viewBox="0 0 20 20" fill="none" xmlns="http://www.w3.org/2000/svg">
<path d="M18 10C18 5.58172 14.4183 2 10 2C5.58172 2 2 5.58172 2 10C2 14.4183 5.58172 18 10 18C11.6418 18 13.1681 17.5054 14.4381 16.6571L15.5476 18.3214C13.9602 19.3818 12.0523 20 10 20C4.47715 20 0 15.5228 0 10C0 4.47715 4.47715 0 10 0C15.5228 0 20 4.47715 20 10V11.5C20 13.433 18.433 15 16.5 15C15.2958 15 14.2336 14.3918 13.6038 13.4659C12.6942 14.4115 11.4158 15 10 15C7.23858 15 5 12.7614 5 10C5 7.23858 7.23858 5 10 5C11.1258 5 12.1647 5.37209 13.0005 6H15V11.5C15 12.3284 15.6716 13 16.5 13C17.3284 13 18 12.3284 18 11.5V10ZM10 7C8.3431 7 7 8.3431 7 10C7 11.6569 8.3431 13 10 13C11.6569 13 13 11.6569 13 10C13 8.3431 11.6569 7 10 7Z" fill="#303030"/>
</svg>
