<svg width="19" height="19" viewBox="0 0 19 19" fill="none" xmlns="http://www.w3.org/2000/svg">
<path d="M3.33697 4.34751L0.634766 1.64531L1.81328 0.466797L4.51548 3.169H17.2169C17.6772 3.169 18.0503 3.5421 18.0503 4.00233C18.0503 4.08343 18.0384 4.16411 18.0152 4.24179L16.0152 10.9085C15.9094 11.261 15.5849 11.5024 15.2169 11.5024H5.00364V13.169H14.1703V14.8357H4.1703C3.71006 14.8357 3.33697 14.4625 3.33697 14.0024V4.34751ZM5.00364 4.83566V9.83571H14.5969L16.0969 4.83566H5.00364ZM4.58697 18.169C3.89661 18.169 3.33697 17.6094 3.33697 16.919C3.33697 16.2286 3.89661 15.669 4.58697 15.669C5.27733 15.669 5.83697 16.2286 5.83697 16.919C5.83697 17.6094 5.27733 18.169 4.58697 18.169ZM14.587 18.169C13.8966 18.169 13.337 17.6094 13.337 16.919C13.337 16.2286 13.8966 15.669 14.587 15.669C15.2773 15.669 15.837 16.2286 15.837 16.919C15.837 17.6094 15.2773 18.169 14.587 18.169Z" fill="white"/>
</svg>
