<svg width="16" height="18" viewBox="0 0 16 18" fill="none" xmlns="http://www.w3.org/2000/svg">
<path d="M3.83317 4.00032V1.50033C3.83317 1.04009 4.20627 0.666992 4.6665 0.666992H14.6665C15.1267 0.666992 15.4998 1.04009 15.4998 1.50033V13.167C15.4998 13.6272 15.1267 14.0003 14.6665 14.0003H12.1665V16.4996C12.1665 16.9602 11.7916 17.3337 11.3275 17.3337H1.33888C0.875492 17.3337 0.5 16.9632 0.5 16.4996L0.502167 4.83438C0.50225 4.37375 0.8772 4.00032 1.34118 4.00032H3.83317ZM2.16868 5.66699L2.16682 15.667H10.4998V5.66699H2.16868ZM5.49983 4.00032H12.1665V12.3337H13.8332V2.33366H5.49983V4.00032Z" fill="#303030"/>
</svg>
