<svg width="52" height="24" viewBox="0 0 52 24" fill="none" xmlns="http://www.w3.org/2000/svg">
<path d="M0 0V24H14.2706V19.6843H5.07675V13.967H12.6316V9.65319H5.07675V4.31284H13.8688V0H0Z" fill="#2E308F"/>
<path d="M12.4951 0H18.1792L21.7899 13.0144C22.3916 15.2411 22.9944 17.3655 23.4625 19.6584H23.5933C24.0306 17.4316 24.5278 15.31 25.166 12.9799L28.7766 0H34.1598L26.6386 24H20.0173L12.4951 0Z" fill="#2E308F"/>
<path d="M51.9971 2.69747L48.721 6.25812C48.1909 5.65157 47.5318 5.16998 46.7916 4.84823C46.0515 4.52648 45.2486 4.37262 44.4414 4.3978C41.3633 4.3978 38.7544 6.09627 38.7544 11.6214C38.7544 17.38 40.6233 19.8747 44.5395 19.8747C45.289 19.8786 46.0344 19.7633 46.7475 19.5334V11.6503H51.8635V21.935C50.1573 23.1005 47.8184 24 43.4696 24C36.8174 24 33.5085 20.0003 33.5085 12.2167C33.5076 3.79598 38.4227 0 44.6395 0C49.2565 0 51.3608 1.9645 51.9971 2.69747Z" fill="#2E308F"/>
</svg>
