<svg width="18" height="16" viewBox="0 0 18 16" fill="none" xmlns="http://www.w3.org/2000/svg">
<path d="M12.75 0.5C15.2813 0.5 17.3333 2.58333 17.3333 5.5C17.3333 11.3333 11.0833 14.6667 8.99996 15.9167C6.91663 14.6667 0.666626 11.3333 0.666626 5.5C0.666626 2.58333 2.74996 0.5 5.24996 0.5C6.79993 0.5 8.16663 1.33333 8.99996 2.16667C9.83329 1.33333 11.2 0.5 12.75 0.5ZM9.77821 13.5032C10.5129 13.0404 11.175 12.5796 11.7957 12.0858C14.278 10.1108 15.6666 7.95292 15.6666 5.5C15.6666 3.53397 14.3858 2.16667 12.75 2.16667C11.8534 2.16667 10.8827 2.64092 10.1785 3.34518L8.99996 4.52369L7.82146 3.34518C7.11719 2.64092 6.14654 2.16667 5.24996 2.16667C3.63251 2.16667 2.33329 3.54708 2.33329 5.5C2.33329 7.95292 3.72185 10.1108 6.20424 12.0858C6.82496 12.5796 7.48704 13.0404 8.22171 13.5032C8.47046 13.6599 8.71754 13.8108 8.99996 13.9793C9.28238 13.8108 9.52946 13.6599 9.77821 13.5032Z" fill="#303030"/>
</svg>
