<svg width="18" height="18" viewBox="0 0 18 18" fill="none" xmlns="http://www.w3.org/2000/svg">
<path d="M14.5049 18.0029C12.5719 18.0029 11.0049 16.4359 11.0049 14.5029C11.0049 12.5699 12.5719 11.0029 14.5049 11.0029C16.4379 11.0029 18.0049 12.5699 18.0049 14.5029C18.0049 16.4359 16.4379 18.0029 14.5049 18.0029ZM3.50488 7.00288C1.57189 7.00288 0.00488281 5.43592 0.00488281 3.50293C0.00488281 1.56993 1.57189 0.00292969 3.50488 0.00292969C5.43788 0.00292969 7.0049 1.56993 7.0049 3.50293C7.0049 5.43592 5.43788 7.00288 3.50488 7.00288ZM16.076 0.51765L17.4902 1.93186L1.93382 17.4882L0.519603 16.074L16.076 0.51765Z" fill="#2E308F"/>
</svg>
