<svg width="32" height="32" viewBox="0 0 32 32" fill="none" xmlns="http://www.w3.org/2000/svg">
<path d="M5.33915 8.55679L1.01562 4.23327L2.90124 2.34766L7.22476 6.67118H27.5471C28.2835 6.67118 28.8804 7.26814 28.8804 8.00451C28.8804 8.13427 28.8615 8.26335 28.8243 8.38764L25.6243 19.0543C25.4551 19.6183 24.9359 20.0046 24.3471 20.0046H8.00582V22.6712H22.6725V25.3379H6.67248C5.9361 25.3379 5.33915 24.7408 5.33915 24.0046V8.55679ZM8.00582 9.33784V17.3379H23.3551L25.7551 9.33784H8.00582ZM7.33915 30.6712C6.23458 30.6712 5.33915 29.7758 5.33915 28.6712C5.33915 27.5666 6.23458 26.6712 7.33915 26.6712C8.44372 26.6712 9.33915 27.5666 9.33915 28.6712C9.33915 29.7758 8.44372 30.6712 7.33915 30.6712ZM23.3392 30.6712C22.2345 30.6712 21.3392 29.7758 21.3392 28.6712C21.3392 27.5666 22.2345 26.6712 23.3392 26.6712C24.4437 26.6712 25.3392 27.5666 25.3392 28.6712C25.3392 29.7758 24.4437 30.6712 23.3392 30.6712Z" fill="#2E308F"/>
</svg>
