<svg width="28" height="25" viewBox="0 0 28 25" fill="none" xmlns="http://www.w3.org/2000/svg">
<path d="M20.0001 0C24.0502 0 27.3334 3.33333 27.3334 8C27.3334 17.3333 17.3334 22.6667 14.0001 24.6667C10.6667 22.6667 0.666748 17.3333 0.666748 8C0.666748 3.33333 4.00008 0 8.00008 0C10.48 0 12.6667 1.33333 14.0001 2.66667C15.3334 1.33333 17.5201 0 20.0001 0ZM15.2453 20.8051C16.4207 20.0647 17.4801 19.3273 18.4733 18.5372C22.445 15.3773 24.6667 11.9247 24.6667 8C24.6667 4.85435 22.6174 2.66667 20.0001 2.66667C18.5655 2.66667 17.0125 3.42548 15.8857 4.55228L14.0001 6.43791L12.1145 4.55228C10.9877 3.42548 9.43462 2.66667 8.00008 2.66667C5.41216 2.66667 3.33341 4.87533 3.33341 8C3.33341 11.9247 5.55511 15.3773 9.52693 18.5372C10.5201 19.3273 11.5794 20.0647 12.7549 20.8051C13.1529 21.0559 13.5482 21.2972 14.0001 21.5669C14.4519 21.2972 14.8473 21.0559 15.2453 20.8051Z" fill="#2E308F"/>
</svg>
